<?xml version="1.0" encoding="UTF-8"?>
<svg id="_Слой_1" data-name="Слой 1" xmlns="http://www.w3.org/2000/svg" viewBox="0 0 583.47 200">
  <defs>
    <style>
      .cls-1 {
        stroke: #fff;
      }

      .cls-1, .cls-2 {
        fill: none;
        stroke-miterlimit: 10;
      }

      .cls-2 {
        stroke: #1d1d1b;
      }

      .cls-3 {
        fill: #1d1d1b;
        stroke-width: 0px;
      }
    </style>
  </defs>
  <g>
    <circle class="cls-3" cx="100.33" cy="99.72" r="100"/>
    <circle class="cls-2" cx="100.33" cy="99.72" r="100"/>
  </g>
  <g>
    <circle class="cls-1" cx="70.24" cy="98.14" r="32.43"/>
    <rect class="cls-3" x="70.24" y="60.36" width="43.55" height="82.3"/>
    <line class="cls-1" x1="70.24" y1="65.72" x2="83.47" y2="65.72"/>
    <line class="cls-1" x1="70.24" y1="130.57" x2="83.47" y2="130.57"/>
  </g>
  <g>
    <line class="cls-1" x1="107.71" y1="101.51" x2="107.71" y2="65.72"/>
    <line class="cls-1" x1="131.34" y1="101.51" x2="155.09" y2="65.72"/>
    <line class="cls-1" x1="131.49" y1="101.51" x2="107.74" y2="65.72"/>
    <line class="cls-1" x1="155.15" y1="130.57" x2="155.15" y2="65.72"/>
  </g>
  <g>
    <path class="cls-3" d="m275.38,61.77c-2.47,8.31-8.61,14.6-19.69,14.6-15.05,0-22.98-11.98-22.98-26.73s7.79-27.02,23.06-27.02c11.3,0,17.97,6.29,19.69,15.05h-4.04c-2.4-6.81-6.81-11.3-15.87-11.3-13.03,0-18.49,11.9-18.49,23.21s5.39,23.06,18.79,23.06c8.53,0,12.88-4.42,15.5-10.85h4.04Z"/>
    <path class="cls-3" d="m304.2,75.77V20.6h3.74v55.17h-3.74Z"/>
    <path class="cls-3" d="m365.36,68.66c0,3.29.3,5.91.52,7.11h-3.59c-.3-.9-.52-2.55-.67-5.76-1.27,2.77-4.57,6.66-12.28,6.66-8.68,0-12.43-5.61-12.43-11.23,0-8.23,6.36-11.98,17.59-11.98h7.11v-3.82c0-3.74-1.12-8.76-9.66-8.76-7.56,0-8.68,3.97-9.51,7.04h-3.74c.45-4.12,3-10.48,13.33-10.48,8.53,0,13.33,3.59,13.33,11.83v19.39Zm-3.67-11.98h-7.34c-8.31,0-13.47,2.17-13.47,8.61,0,4.72,3.37,7.94,8.61,7.94,10.71,0,12.2-7.11,12.2-15.2v-1.35Z"/>
    <path class="cls-3" d="m425.17,64.84c0,3.67.08,9.51.08,10.93h-3.59c-.15-.97-.22-3.44-.22-6.51-1.57,4.42-5.39,7.41-12.05,7.41-5.39,0-12.28-2.1-12.28-13.55v-24.78h3.67v23.88c0,5.46,1.72,10.78,9.13,10.78,8.38,0,11.53-4.72,11.53-15.42v-19.24h3.74v26.5Z"/>
    <path class="cls-3" d="m485.8,20.6v44.39c0,3.59,0,7.04.08,10.78h-3.59c-.15-.9-.22-4.42-.22-6.29-1.87,4.57-6.06,7.19-12.58,7.19-9.73,0-15.57-7.94-15.57-19.16s6.36-20.06,16.54-20.06c7.49,0,10.48,3.22,11.6,5.61v-22.46h3.74Zm-27.92,36.76c0,10.26,5.32,15.8,11.75,15.8,9.88,0,12.58-6.81,12.58-16.99,0-9.66-2.32-15.2-11.9-15.2-7.41,0-12.43,5.91-12.43,16.39Z"/>
    <path class="cls-3" d="m518.37,57.5c.08,9.66,4.94,15.65,12.13,15.65s9.43-3.97,10.78-7.04h3.82c-1.57,4.94-5.54,10.56-14.75,10.56-11.38,0-15.79-9.81-15.79-19.31,0-10.71,5.31-19.91,16.24-19.91,11.53,0,15.2,9.96,15.2,16.99,0,1.05,0,2.1-.07,3.07h-27.55Zm23.73-3.29c-.08-7.41-4.12-13.25-11.45-13.25-7.71,0-11.23,5.39-12.05,13.25h23.51Z"/>
    <path class="cls-3" d="m281.22,141.49c0-10.26.08-20.06.3-25.3h-.22c-2.1,7.04-12.73,32.86-19.39,49.41h-3.97c-5.02-12.8-16.02-41.55-18.42-49.48h-.15c.37,5.99.52,18.19.52,27.17v22.31h-4.04v-52.4h6.06c7.19,17.97,16.25,41.47,18.19,47.39h.15c1.2-3.82,11.68-29.94,19.01-47.39h5.99v52.4h-4.04v-24.1Z"/>
    <path class="cls-3" d="m348.52,146.81c0,10.41-5.76,19.69-16.92,19.69-10.11,0-16.39-8.31-16.39-19.61,0-10.71,5.91-19.61,16.77-19.61,9.96,0,16.54,7.79,16.54,19.54Zm-29.35.08c0,8.91,4.79,16.09,12.73,16.09s12.65-6.66,12.65-16.09c0-8.83-4.49-16.09-12.8-16.09s-12.58,7.11-12.58,16.09Z"/>
    <path class="cls-3" d="m377.26,137.6c0-3.29,0-6.44-.08-9.43h3.67c.15,1.2.22,6.06.15,7.11,1.65-3.82,4.72-8.01,12.43-8.01,6.66,0,12.58,3.74,12.58,14.07v24.25h-3.74v-23.66c0-6.66-2.77-11-9.28-11-8.91,0-11.98,7.41-11.98,15.57v19.09h-3.74v-28Z"/>
    <path class="cls-3" d="m438.57,147.33c.08,9.66,4.94,15.65,12.13,15.65s9.43-3.97,10.78-7.04h3.82c-1.57,4.94-5.54,10.56-14.75,10.56-11.38,0-15.79-9.81-15.79-19.31,0-10.71,5.31-19.91,16.24-19.91,11.53,0,15.2,9.96,15.2,16.99,0,1.05,0,2.1-.07,3.07h-27.55Zm23.73-3.29c-.08-7.41-4.12-13.25-11.45-13.25-7.71,0-11.23,5.39-12.05,13.25h23.51Z"/>
    <path class="cls-3" d="m489.17,128.17h6.96v-11.68h3.74v11.68h8.91v3.52h-8.91v24.33c0,4.19.9,6.59,4.49,6.59,1.12,0,2.69-.08,3.89-.45v3.29c-1.27.52-3.07.67-4.64.67-4.79,0-7.49-2.4-7.49-8.38v-26.05h-6.96v-3.52Z"/>
  </g>
</svg>